# xmcd CD database file
#
# Track frame offsets:
#	150
#	20946
#	34143
#	48965
#	68274
#	84718
#	96639
#	109392
#	125368
#	147602
#	174513
#	193991
#	206132
#	217706
#	241836
#
# Disc length: 3435 seconds
#
# Revision: 2
# Processed by: cddbd v1.5.2PL0 Copyright (c) Steve Scherf et al.
# Submitted via: CDex 1.70beta2
#
DISCID=e10d690f
DTITLE=Various Artist - World Tour - Southern Blues  CD1 (The Old Traditions)
DYEAR=2008
DGENRE=Jazz
TTITLE0=Louis Armstrong and His All-Stars - Tin Roof Blues
TTITLE1=Bessie Smith - Kitchen Man
TTITLE2=Billie Holiday - Georgia On My Mind
TTITLE3=The Dirty Dozen Brass Band - Don't You Feel My Leg
TTITLE4=Scott Joplin - The Entertainer
TTITLE5=Robert Johnson - Cross Road Blues
TTITLE6=Josh White - Friedless City Blues
TTITLE7=Jazz Gillum - Born With The Blues
TTITLE8=Willie Dixon - Spoonful
TTITLE9=Junior Wells - Little Red Rooster  (Live)
TTITLE10=Son House - Death Letter Blues
TTITLE11=Big Bill Broonzy - Merry Go Round Blues
TTITLE12=Taj Mahal - Cakewalk Into Town
TTITLE13=Muddy Waters - Mannish Boy
TTITLE14=The Band - The Night They Drove Old Dixie Down
EXTD=YEAR: 2008
EXTT0=
EXTT1=
EXTT2=
EXTT3=
EXTT4=
EXTT5=
EXTT6=
EXTT7=
EXTT8=
EXTT9=
EXTT10=
EXTT11=
EXTT12=
EXTT13=
EXTT14=
PLAYORDER=
